# xmcd
#
# Track frame offsets:
#   150
#   9657
#   39420
#   64402
#   86170
#   108222
#   130355
#   153560
#   180180
#   203142
#   232595
#
# Disc length: 3386 seconds
#
# Revision: 0
# Processed by: cddbd v1.4PL0 Copyright (c) Steve Scherf et al.
# Submitted via: uFREEDB 1.6.0
#
DISCID=850d380b
DTITLE=Detentos do Rap - O Pesadelo Continua
DYEAR=1999
DGENRE=Blues
TTITLE0=Introdução
TTITLE1=Condições de Sobreviver
TTITLE2=A cada dia que passa
TTITLE3=Do Calibre ao Poder
TTITLE4=O Pesadelo continua
TTITLE5=É mais ou menos assim
TTITLE6=Por uma Vaga no céu
TTITLE7=Simples família de perifieria
TTITLE8=A Noite
TTITLE9=Missão Suicida
TTITLE10=Casa Cheia (Samba Rock Remix)
EXTD=
EXTT0=
EXTT1=
EXTT2=
EXTT3=
EXTT4=
EXTT5=
EXTT6=
EXTT7=
EXTT8=
EXTT9=
EXTT10=
PLAYORDER=
